<?xml version='1.0' encoding='utf-8'?>
<svg xmlns:ns0="http://www.w3.org/2000/svg" xmlns="http://www.w3.org/2000/svg" xmlns:xlink="http://www.w3.org/1999/xlink" viewBox="0 0 100 100"><ns0:path d="M85.981 44.132l-17.99 10.98V42.99h-9.864c3.65-1.48 6.231-5.045 6.231-9.23 0-5.502-4.462-9.963-9.966-9.963-5.5 0-9.96 4.46-9.96 9.963 0 4.186 2.58 7.752 6.23 9.23H33.11c5.209-1.801 8.953-6.732 8.953-12.55 0-7.34-5.947-13.288-13.29-13.288-7.333 0-13.282 5.949-13.282 13.289 0 5.816 3.744 10.748 8.95 12.549H14.019v39.857h53.975V70.73l17.99 10.98V44.132z" />
    </svg>