<?xml version='1.0' encoding='utf-8'?>
<svg xmlns:ns0="http://www.w3.org/2000/svg" xmlns="http://www.w3.org/2000/svg" xmlns:xlink="http://www.w3.org/1999/xlink" viewBox="0 0 100 100"><ns0:path d="M79.948 47.116c-1.727-4.888-6.376-8.396-11.855-8.396-2.249 0-4.355.597-6.183 1.631-1.233-9.72-9.516-17.241-19.571-17.241-10.905 0-19.746 8.841-19.746 19.746 0 .244.028.48.037.721-8.451.778-15.071 7.878-15.071 16.533 0 4.861 2.101 9.221 5.43 12.259a14.947 14.947 0 0 0 10.723 4.521h53.729c8.284 0 15-6.716 15-15 0-7.428-5.405-13.579-12.493-14.774z" />
    </svg>