<?xml version='1.0' encoding='utf-8'?>
<svg xmlns:ns0="http://www.w3.org/2000/svg" xmlns="http://www.w3.org/2000/svg" xmlns:xlink="http://www.w3.org/1999/xlink" viewBox="0 0 35 23"><ns0:path stroke="#555" stroke-width="1.5" d="M1 18h33M1 5h33" />
        <ns0:path d="M1 18l1.1.005 1.1-.013 1.1-.017 1.1.005 1.1.052 1.1.07 1.1-.021 1.1-.209 1.1-.278 1.1.084 1.1.834 1.1 1.113 1.1-.335 1.1-3.337 1.1-4.453 1.1-4.453 1.1-3.337 1.1-.335 1.1 1.113 1.1.834 1.1.084 1.1-.278 1.1-.209 1.1-.02 1.1.069 1.1.052 1.1.005 1.1-.017 1.1-.013L34 5" fill="none" stroke="#aaa" stroke-width="2" />
    </svg>