<?xml version='1.0' encoding='utf-8'?>
<svg xmlns:ns0="http://www.w3.org/2000/svg" xmlns="http://www.w3.org/2000/svg" xmlns:xlink="http://www.w3.org/1999/xlink" viewBox="0 0 35 23"><ns0:path stroke="#555" stroke-width="1.5" d="M1 20h33M1 3h33" />
        <ns0:path d="M1 20l1.179-.09 1.178-.344 1.179-.03 1.178.171 1.179-1.222 1.178-.567 1.179.09 1.179.745 1.178.946 1.179-2.952 1.178-2.295 1.179-1.64 1.178-.984L17.5 11.5l1.179-.328 1.178-.984 1.179-1.64 1.178-2.295L23.393 3.3l1.178.946 1.179.745 1.179.09 1.178-.567 1.179-1.222 1.178.17 1.179-.03 1.178-.344L34 3" fill="none" stroke="#aaa" stroke-width="2" />
    </svg>