<?xml version='1.0' encoding='utf-8'?>
<svg xmlns:ns0="http://www.w3.org/2000/svg" xmlns="http://www.w3.org/2000/svg" xmlns:xlink="http://www.w3.org/1999/xlink" viewBox="0 0 100 100"><ns0:path style="line-height:normal;text-indent:0;text-align:start;text-decoration-line:none;text-decoration-style:solid;text-decoration-color:#000;text-transform:none;isolation:auto;mix-blend-mode:normal;marker:none" d="M13.988 38C7.396 38 2 43.408 2 50s5.396 12 11.988 12S26 56.592 26 50s-5.42-12-12.012-12zM50 38c-6.592 0-12 5.408-12 12s5.408 12 12 12 12-5.408 12-12-5.408-12-12-12zm36 0c-6.592 0-12 5.408-12 12s5.408 12 12 12 12-5.408 12-12-5.408-12-12-12z" color="#000" font-weight="400" font-family="sans-serif" white-space="normal" overflow="visible" />
    </svg>