<?xml version='1.0' encoding='utf-8'?>
<svg xmlns:ns0="http://www.w3.org/2000/svg" xmlns="http://www.w3.org/2000/svg" xmlns:xlink="http://www.w3.org/1999/xlink" viewBox="0 0 100 100"><ns0:path d="M87.6 18.2l-5.793-5.793a8.197 8.197 0 0 0-11.588-.002l-6.982 6.982-3.981-3.982a2.41 2.41 0 0 0-3.407 0l-7.666 7.664c-.94.94-.94 2.467-.001 3.408l4.154 4.154-34.922 34.915c-.47.47-.857 1.39-.863 2.056l-.088 8.915-5.011 5.009a4.964 4.964 0 0 0 0 7.016 4.95 4.95 0 0 0 3.51 1.451c1.27 0 2.537-.48 3.507-1.45l5.01-5.01 8.917-.086c.666-.006 1.585-.392 2.056-.863l34.922-34.915 4.151 4.153a2.408 2.408 0 0 0 3.407 0l7.666-7.665a2.41 2.41 0 0 0 0-3.408l-3.983-3.981 6.984-6.983a8.19 8.19 0 0 0 .002-11.585zM56.743 53.483L36.3 53.481l18.594-18.59 10.221 10.222z" />
    </svg>