<?xml version='1.0' encoding='utf-8'?>
<svg xmlns:ns0="http://www.w3.org/2000/svg" xmlns="http://www.w3.org/2000/svg" xmlns:xlink="http://www.w3.org/1999/xlink" viewBox="0 0 100 100"><ns0:g transform="translate(4.9 4.766)">
            <ns0:path d="M45.099 4.458c-23.073 0-40.776 17.703-40.776 40.776 0 23.072 17.704 40.777 40.776 40.777 23.072 0 40.777-17.705 40.777-40.777 0-23.074-17.705-40.776-40.777-40.776zm0 76.721c-19.3 0-35.945-16.646-35.945-35.945C9.154 25.934 25.8 9.29 45.1 9.29s35.945 16.644 35.945 35.944c0 19.299-16.646 35.945-35.945 35.945z" />
            <ns0:circle cx="31.781" cy="36.963" r="4.033" stroke-width=".648" />
            <ns0:circle cx="57.006" cy="36.963" r="4.033" stroke-width=".648" />
            <ns0:path d="M64.518 53.716c-4.264 6.146-11.368 10.178-19.416 10.178-8.037 0-15.129-4.018-19.396-10.147l-3.743 2.692c5.104 7.294 13.56 12.072 23.14 12.072 9.67 0 18.192-4.87 23.282-12.282z" />
        </ns0:g>
    </svg>