<?xml version='1.0' encoding='utf-8'?>
<svg xmlns:ns0="http://www.w3.org/2000/svg" xmlns="http://www.w3.org/2000/svg" xmlns:xlink="http://www.w3.org/1999/xlink" viewBox="0 0 100 100"><ns0:path d="M83.3 15.4c-1.1-.8-2.3-1-3.4-.7l-7.2 1.8c-7.4 1.9-15.1 1.5-22.3-1.2H50c-8-2.9-16.6-3.6-24.8-1.9l-2.1.4V7.4c0-2.2-1.8-4-4-4s-4 1.8-4 4v85.2c0 2.2 1.8 4 4 4s4-1.8 4-4V57.1l3.7-.7c6.7-1.3 13.9-.8 20.6 1.6l.3.1C53 60 58.3 61 63.5 61c3.9 0 7.6-.4 11.1-1.3l7.2-1.8c1.8-.4 3.1-2 3.1-3.9V18.6c0-1.3-.6-2.4-1.6-3.2z" />
    </svg>