<?xml version='1.0' encoding='utf-8'?>
<svg xmlns:ns0="http://www.w3.org/2000/svg" xmlns="http://www.w3.org/2000/svg" xmlns:xlink="http://www.w3.org/1999/xlink" viewBox="0 0 100 100"><ns0:path d="M97.5 50.527s-16.518 12.9-16.074 16.654c.409 3.41 6.604 2.568 10.21 5.982 8.534 8.089-4.427 19.675-12.32 13.019-.67-.568-2.124-2.509-2.814-4.223-.783-1.95-.681-6.34-3.52-6.686-3.49-.42-22.984 22.05-22.984 22.05s-19.774-15.65-20.607-18.158c-.919-2.756 4.075-3.063 6.532-4.01 1.686-.647 3.86-1.743 4.926-3.168 6.89-9.19-7.17-20.025-14.334-12.4-4.139 4.405-1.3 12.155-5.663 10.948C17.007 69.472 2.5 50.525 2.5 50.525S18.817 39.31 18.568 35.513c-.22-3.365-5.498-3.294-7.39-4.224-3.003-1.477-5.21-3.593-5.276-8.444-.144-10.448 14.075-11.193 17.592-2.46 1.086 2.695.642 5.784 3.169 6.33 3.887.845 23.335-24.039 23.335-24.039s20.035 17.29 20.057 20.052c.02 2.71-7.02 1.743-9.854 4.575-6.742 6.744-.094 20.036 11.409 13.91.98-.52 2.786-2.505 3.37-4.763.567-2.192.448-6.162 2.817-6.333 3.095-.223 19.703 20.41 19.703 20.41z" clip-rule="evenodd" fill-rule="evenodd" />
    </svg>