<?xml version='1.0' encoding='utf-8'?>
<svg xmlns:ns0="http://www.w3.org/2000/svg" xmlns="http://www.w3.org/2000/svg" xmlns:xlink="http://www.w3.org/1999/xlink" viewBox="0 0 24 24"><ns0:defs id="cidefs4">
            <ns0:style id="cistyle2">.cicls-1{fill-rule:evenodd}</ns0:style>
        </ns0:defs>
        <ns0:path class="cicls-1" d="M1163.46 251.089l-7.75 4.592a.981.981 0 0 1-.56.263.859.859 0 0 1-.88-.281l-4.27-4.228-4.28 4.246a1.018 1.018 0 0 1-1.43 0 1 1 0 0 1 0-1.414l4.99-4.95c.4-.39 1.04-.39 1.44 0l4.33 4.293 7.53-4.467a.917.917 0 0 1 1.33.444c.24.543.049 1.18-.45 1.502zM1164 262v2h-24v-24h2v22z" transform="translate(-1140 -240)" id="cipath6" fill-rule="evenodd" />
    </svg>