<?xml version='1.0' encoding='utf-8'?>
<svg xmlns:ns0="http://www.w3.org/2000/svg" xmlns="http://www.w3.org/2000/svg" xmlns:xlink="http://www.w3.org/1999/xlink" viewBox="0 0 100 100"><ns0:path d="M50 11c-12.195 0-24 9.461-24 22.844 0 17.364 13 21 13 33.156h22c0-12.156 13-15.792 13-33.156C74 20.46 62.195 11 50 11zm-4.009 7.713c.162.913-.403 1.901-1.272 2.224a15.028 15.028 0 0 0-9.47 11.407c-.187 1.03-1.297 1.797-2.327 1.61-1.031-.19-1.798-1.298-1.61-2.329a18.938 18.938 0 0 1 11.969-14.406c1.143-.465 2.502.496 2.71 1.494zM39 71v4h22v-4zm0 8c0 2.298 1.89 4 4 4h14c2.11 0 4-1.702 4-4zm7 6c0 2.216 1.784 4 4 4s4-1.784 4-4z" style="marker:none" overflow="visible" color="#000" />
    </svg>