<?xml version='1.0' encoding='utf-8'?>
<svg xmlns:ns0="http://www.w3.org/2000/svg" xmlns="http://www.w3.org/2000/svg" xmlns:xlink="http://www.w3.org/1999/xlink" viewBox="0 0 100 100"><ns0:path d="M30.255 8.35c-7.136 0-14.272 2.744-19.624 8.096-10.841 10.842-10.841 28.545 0 39.386L47.684 90.69c.686.549 1.51.96 2.333.96.824 0 1.647-.274 2.333-.96l37.053-34.858C94.755 50.48 97.5 43.344 97.5 36.208c0-7.136-2.745-14.272-8.097-19.624-4.803-4.804-10.978-7-17.428-7-7.823 0-15.782 3.294-21.683 9.058l-.138.137s-.137 0-.137-.137C44.253 13.427 37.254 8.349 30.255 8.349z" />
    </svg>