<?xml version='1.0' encoding='utf-8'?>
<svg xmlns:ns0="http://www.w3.org/2000/svg" xmlns="http://www.w3.org/2000/svg" xmlns:xlink="http://www.w3.org/1999/xlink" viewBox="0 0 100 100"><ns0:g transform="matrix(1.18734 0 0 1.18734 -6.992 -6.992)">
            <ns0:path d="M48 10.1c-11.343 0-20.571 9.228-20.571 20.571v10.493h6.965V30.671c0-7.502 6.104-13.606 13.606-13.606s13.606 6.104 13.606 13.606v10.493h6.965V30.671C68.571 19.328 59.343 10.1 48 10.1zM73.398 84.594V44.646c0-.72-.586-1.306-1.306-1.306H23.908c-.72 0-1.306.586-1.306 1.306v39.948c0 .72.586 1.306 1.306 1.306h48.185c.72 0 1.305-.586 1.305-1.306zM49.596 65.238c0 .88-.716 1.596-1.596 1.596-.88 0-1.596-.716-1.596-1.596v-4.941c0-.88.716-1.596 1.596-1.596.88 0 1.596.716 1.596 1.596z" />
        </ns0:g>
    </svg>