<?xml version='1.0' encoding='utf-8'?>
<svg xmlns:ns0="http://www.w3.org/2000/svg" xmlns="http://www.w3.org/2000/svg" xmlns:xlink="http://www.w3.org/1999/xlink" viewBox="0 0 100 100"><ns0:path d="M56.64 14.749c-.234.115-.39.41-.39.878v7.812H10.937c-1.978 0-4.071.754-5.565 2.247-1.494 1.494-2.247 3.588-2.247 5.566v37.5c0 1.978.753 4.072 2.247 5.566 1.494 1.493 3.587 2.246 5.566 2.246h7.812V67.19H12.5V32.814h43.75v7.813c0 .937.644 1.21 1.269.587L73.73 29.105c.625-.625.625-1.328 0-1.953L57.52 15.042c-.313-.312-.644-.409-.878-.293zm24.61 8.69v9.375h6.25V67.19H43.75v-7.812c0-.938-.644-1.21-1.269-.588L26.27 70.9c-.625.625-.625 1.328 0 1.953l16.212 12.11c.625.624 1.269.352 1.269-.588V76.56h45.313c1.978 0 4.071-.753 5.565-2.247 1.494-1.493 2.247-3.587 2.247-5.565v-37.5c0-1.978-.753-4.072-2.247-5.566-1.494-1.494-3.587-2.247-5.566-2.247H81.25z" />
    </svg>