<?xml version='1.0' encoding='utf-8'?>
<svg xmlns:ns0="http://www.w3.org/2000/svg" xmlns="http://www.w3.org/2000/svg" xmlns:xlink="http://www.w3.org/1999/xlink" viewBox="0 0 100 100"><ns0:path d="M34.105 12.965v57.514c-3.324-1.452-7.45-1.802-11.467-.934C13.822 71.449 7.784 78.604 9.18 85.49 10.311 91.089 16.123 95 23.31 95c1.452 0 2.927-.158 4.383-.475 7.653-1.652 13.39-7.332 13.643-13.553l.018-53.694 42.416-6.357v41.9c-3.326-1.452-7.45-1.802-11.47-.935-8.812 1.905-14.85 9.06-13.458 15.946 1.134 5.601 6.945 9.512 14.131 9.512 1.452 0 2.927-.158 4.386-.475 7.65-1.654 13.39-7.335 13.643-13.553L91.022 5l-56.917 7.965z" />
    </svg>