<?xml version='1.0' encoding='utf-8'?>
<svg xmlns:ns0="http://www.w3.org/2000/svg" xmlns="http://www.w3.org/2000/svg" xmlns:xlink="http://www.w3.org/1999/xlink" viewBox="0 0 99.999998 100"><ns0:path d="M44.484 76.645V63.29l-9.446 9.446-9.447 9.446-3.886-3.887-3.887-3.886 9.446-9.447 9.446-9.446H10V44.484h26.71l-9.446-9.446-9.446-9.447 3.887-3.886 3.886-3.887 9.447 9.446 9.446 9.446V10h11.032v26.71l9.446-9.446 9.447-9.446 3.886 3.887 3.887 3.886-9.446 9.447-9.446 9.446H90v11.032H63.29l9.446 9.446 9.446 9.447-3.887 3.886-3.886 3.887-9.447-9.446-9.446-9.446V90H44.484z" />
    </svg>