<?xml version='1.0' encoding='utf-8'?>
<svg xmlns:ns0="http://www.w3.org/2000/svg" xmlns="http://www.w3.org/2000/svg" xmlns:xlink="http://www.w3.org/1999/xlink" viewBox="0 0 100 100"><ns0:path d="M94.65 35.7c0-.1-.1-.2-.1-.3 0-.1-.1-.2-.1-.3 0-.1-.1-.2-.2-.3 0-.1-.1-.2-.1-.2-.1-.2-.2-.3-.4-.5L66.35 6.7c-.1-.1-.3-.3-.5-.4-.1 0-.1-.1-.2-.1-.1-.1-.2-.1-.3-.2-.1 0-.2-.1-.3-.1-.1 0-.2-.1-.3-.1-.2 0-.4-.1-.6-.1H7.55h-.1c-.2.2-.3.3-.4.3l-.6.3-.1.1-.3.3-.2.2c0 .1-.1.1-.2.2 0 .1-.1.2-.1.3 0 .1-.1.2-.1.3-.1.1-.1.2-.1.3 0 .1-.1.2-.1.3V64.6c0 .1.1.2.1.3 0 .1 0 .2.1.2l.1.1c.1.1.1.3.2.4l.1.1.3.3 28.5 27.5c.1 0 .1.1.2.1.1.1.2.2.3.2.1.1.2.1.3.1.1 0 .2.1.3.1.1 0 .2.1.3.1.1 0 .2.1.2.1.2 0 .4.1.6.1h55.1c.2 0 .4 0 .6-.1.1 0 .2-.1.3-.1.1 0 .2-.1.3-.1.1 0 .2-.1.3-.2-.2.1-.1.1-.1.1.3-.2.6-.5.8-.8 0-.1.1-.1.1-.2.1-.1.1-.2.2-.3 0-.1.1-.2.1-.3 0-.1.1-.2.1-.3 0-.2.1-.4.1-.6V36.3c0-.2 0-.4-.1-.6zM67.25 16l17.3 17.3h-17.3V16zm-33.6 68.3l-18-17.5h18.1v17.5zm0-23.5h-22.5V15.9l22.5 21.7v23.2zm-18-49h45.6v21.5h-23.4l-22.2-21.5zm45.6 27.5v21.5h-21.6V39.3h21.6zm-21.6 49.1V66.8h23.3l21.5 21.5h-44.8zm49.1-4.3l-21.5-21.5V39.3h21.5v44.8z" />
    </svg>