<?xml version='1.0' encoding='utf-8'?>
<svg xmlns:ns0="http://www.w3.org/2000/svg" xmlns="http://www.w3.org/2000/svg" xmlns:xlink="http://www.w3.org/1999/xlink" viewBox="0 0 100 99.999999"><ns0:path d="M4.196 0A4.192 4.192 0 0 0 0 4.196v91.608A4.192 4.192 0 0 0 4.196 100h91.608A4.192 4.192 0 0 0 100 95.804V50.34a4.192 4.192 0 0 0-4.196-4.196 4.192 4.192 0 0 0-4.195 4.196v41.269H8.39V8.39h41.261a4.192 4.192 0 0 0 4.195-4.195A4.192 4.192 0 0 0 49.652 0H4.196zm66.753.017a4.192 4.192 0 0 0-4.195 4.195 4.195 4.195 0 0 0 4.195 4.196h14.723l-32.206 32.21a4.19 4.19 0 0 0 0 5.933 4.19 4.19 0 0 0 5.933 0l32.21-32.214v14.735a4.197 4.197 0 0 0 4.195 4.196c2.32 0 4.196-1.88 4.196-4.196V4.212A4.192 4.192 0 0 0 95.804.017H70.95z" />
    </svg>