<?xml version='1.0' encoding='utf-8'?>
<svg xmlns:ns0="http://www.w3.org/2000/svg" xmlns="http://www.w3.org/2000/svg" xmlns:xlink="http://www.w3.org/1999/xlink" viewBox="0 0 20 20"><ns0:style>.st0{fill:none;stroke:#000;stroke-miterlimit:10}</ns0:style>
        <ns0:circle cx="13" cy="6.5" r="5" />
        <ns0:path d="M6 19.5c0-3.9 3.1-7 7-7s7 3.1 7 7M6 6.5c0 .7.1 1.4.3 2H6c-2.2 0-4-1.8-4-4s1.8-4 4-4c.9 0 1.7.3 2.4.8C6.9 2.5 6 4.4 6 6.5zM8.4 11.8c-1.5.9-2.7 2.2-3.4 3.7H0c0-3.3 2.7-6 6-6h.7c.4.9 1 1.7 1.7 2.3z" />
    </svg>