<?xml version='1.0' encoding='utf-8'?>
<svg xmlns:ns0="http://www.w3.org/2000/svg" xmlns="http://www.w3.org/2000/svg" xmlns:xlink="http://www.w3.org/1999/xlink" viewBox="0 0 100 100"><ns0:g transform="translate(-.887 -.41) scale(1.357)">
            <ns0:path d="M32.105 3.676H5.992a3.498 3.498 0 0 0-3.496 3.496v26.11c0 1.933 1.566 3.5 3.496 3.5h26.113a3.498 3.498 0 0 0 3.497-3.5V7.171a3.495 3.495 0 0 0-3.497-3.496zM10.547 14.914a3.188 3.188 0 1 1 .002-6.377 3.188 3.188 0 0 1-.002 6.377zm8.504 8.5a3.19 3.19 0 0 1-3.192-3.187 3.188 3.188 0 1 1 3.191 3.188zm8.504 8.504a3.19 3.19 0 1 1-.005-6.378 3.19 3.19 0 0 1 .005 6.378zm0 0M70.25 39.457l-24.398-9.3a3.496 3.496 0 0 0-4.512 2.023l-9.3 24.398a3.498 3.498 0 0 0 2.023 4.512l24.398 9.3a3.498 3.498 0 0 0 4.512-2.023l9.3-24.398a3.496 3.496 0 0 0-2.023-4.512zM39.973 58.141a3.192 3.192 0 0 1-1.844-4.118 3.194 3.194 0 0 1 4.117-1.843 3.19 3.19 0 0 1-2.273 5.96zm1.183-12.059a3.19 3.19 0 1 1 5.964 2.267 3.19 3.19 0 0 1-5.964-2.267zm4.871-3.828a3.188 3.188 0 1 1 2.27-5.96 3.19 3.19 0 0 1-2.27 5.96zm9.985 22a3.192 3.192 0 0 1 2.27-5.965 3.19 3.19 0 0 1 1.843 4.117 3.184 3.184 0 0 1-4.113 1.848zm3.027-7.942a3.19 3.19 0 0 1-1.844-4.117 3.184 3.184 0 0 1 4.114-1.847 3.192 3.192 0 0 1 1.847 4.117 3.196 3.196 0 0 1-4.117 1.847zm3.031-7.949a3.182 3.182 0 0 1-1.843-4.113 3.182 3.182 0 0 1 4.113-1.844 3.189 3.189 0 0 1 1.844 4.114 3.185 3.185 0 0 1-4.114 1.843zm0 0" />
        </ns0:g>
    </svg>