<?xml version='1.0' encoding='utf-8'?>
<svg xmlns:ns0="http://www.w3.org/2000/svg" xmlns="http://www.w3.org/2000/svg" xmlns:xlink="http://www.w3.org/1999/xlink" viewBox="0 0 100 100"><ns0:title>Artboard 49</ns0:title>
        <ns0:path d="M42.102 10.088L38.09 20.4a2.38 2.38 0 0 1-1.19 1.297 31.103 31.103 0 0 0-4.764 2.75 2.38 2.38 0 0 1-1.726.418L19.396 23.21l-7.893 13.692 6.81 8.538a2.38 2.38 0 0 1 .5 1.726c-.083.941-.132 1.881-.132 2.846 0 .964.001 1.893.144 2.834a2.38 2.38 0 0 1-.5 1.737l-6.822 8.515 7.857 13.704 10.918-1.655a2.384 2.384 0 0 1 1.728.417 31.08 31.08 0 0 0 4.763 2.762 2.38 2.38 0 0 1 1.19 1.298l4.037 10.288h15.787l4.12-10.503a2.38 2.38 0 0 1 1.19-1.286 31.105 31.105 0 0 0 4.453-2.595c.5-.356 1.12-.505 1.728-.416l11.192 1.69 8.025-13.704-7.12-8.92a2.38 2.38 0 0 1-.512-1.702c.095-.821.095-1.643.095-2.476s0-1.643-.107-2.453a2.38 2.38 0 0 1 .512-1.714l7.144-8.943-7.86-13.704-11.203 1.69a2.38 2.38 0 0 1-1.738-.416 31.106 31.106 0 0 0-4.43-2.595 2.38 2.38 0 0 1-1.19-1.274l-4.12-10.503zM50 35.486c8.016 0 14.514 6.498 14.514 14.514 0 8.016-6.498 14.513-14.514 14.514-8.015 0-14.513-6.498-14.513-14.514 0-8.016 6.498-14.513 14.513-14.514z" stroke-width=".885" data-name="Layer 2" />
    </svg>