<?xml version='1.0' encoding='utf-8'?>
<svg xmlns:ns0="http://www.w3.org/2000/svg" xmlns="http://www.w3.org/2000/svg" xmlns:xlink="http://www.w3.org/1999/xlink" viewBox="0 0 100 100"><ns0:title>shape</ns0:title>
        <ns0:path d="M55.79 34.908a26.483 26.483 0 0 1 10.148-2.007c14.67 0 26.562 11.892 26.562 26.562 0 14.67-11.892 26.563-26.562 26.563-9.694 0-18.175-5.193-22.813-12.948h34.189c.282 0 .393-.207.246-.461L55.79 34.908zm-16.175-20.76L71.192 68.86c.132.23.032.415-.222.415H7.782c-.255 0-.358-.18-.222-.415l31.576-54.712c.133-.229.344-.235.48 0z" fill-rule="evenodd" />
    </svg>