<?xml version='1.0' encoding='utf-8'?>
<svg xmlns:ns0="http://www.w3.org/2000/svg" xmlns="http://www.w3.org/2000/svg" xmlns:xlink="http://www.w3.org/1999/xlink" viewBox="0 0 100 100"><ns0:path d="M93.1 25c.8.8.8 2 0 2.8l-6 6c-.8.8-2 .8-2.8 0l-1.6-1.6-3.4 3.4c4.4 6.4 7 14.2 7 22.6 0 22.1-17.9 40-40 40s-40-17.9-40-40c0-19.6 14.1-35.9 32.7-39.4V14h-2.2c-1.1 0-2-.9-2-2V3.7c0-1.1.9-2 2-2H56c1.1 0 2 .9 2 2v8.4c0 1.1-.9 2-2 2h-2.2v4.8c5.6 1 10.8 3.2 15.3 6.3l3.4-3.4-1.6-1.6c-.8-.8-.8-2 0-2.8l6-6c.8-.8 2-.8 2.8 0L93.1 25z" fill="#ccc" />
        <ns0:path d="M73.9 58.2c0-15.2-12.3-27.5-27.5-27.5S18.9 43 18.9 58.2s12.3 27.5 27.5 27.5c15.2.1 27.5-12.3 27.5-27.5z" fill="none" />
        <ns0:circle cx="46.176" cy="57.924" r="30" />
    </svg>