<?xml version='1.0' encoding='utf-8'?>
<svg xmlns:ns0="http://www.w3.org/2000/svg" xmlns="http://www.w3.org/2000/svg" xmlns:xlink="http://www.w3.org/1999/xlink" viewBox="0 0 16.933334 16.933333"><ns0:path d="M1.984 1.985V4.629h2.647V1.985zm3.44 0V4.629H8.07V1.985zm3.439 0V4.629h2.647V1.985zm3.44 0V4.629h2.646V1.985zM1.984 5.425V8.07h2.647V5.424zm3.44 0V8.07H8.07V5.424zm3.439 0V8.07h2.647V5.424zm3.44 0V8.07h2.646V5.424zM1.984 8.863v2.646h2.647V8.864zm3.44 0v2.646H8.07V8.864zm3.439 0v2.646h2.647V8.864zm3.44 0v2.646h2.646V8.864zm-10.319 3.44v2.645h2.647v-2.646zm3.44 0v2.645H8.07v-2.646zm3.439 0v2.645h2.647v-2.646zm3.44 0v2.645h2.646v-2.646z" style="line-height:normal;font-variant-ligatures:normal;font-variant-position:normal;font-variant-caps:normal;font-variant-numeric:normal;font-variant-alternates:normal;font-feature-settings:normal;text-indent:0;text-align:start;text-decoration-line:none;text-decoration-style:solid;text-decoration-color:#000;text-transform:none;text-orientation:mixed;shape-padding:0;isolation:auto;mix-blend-mode:normal" color="#000" font-weight="400" font-family="sans-serif" white-space="normal" overflow="visible" fill-rule="evenodd" stroke-width="2" paint-order="fill markers stroke" />
    </svg>