<?xml version='1.0' encoding='utf-8'?>
<svg xmlns:ns0="http://www.w3.org/2000/svg" xmlns="http://www.w3.org/2000/svg" xmlns:xlink="http://www.w3.org/1999/xlink" viewBox="0 0 100 100"><ns0:path fill-rule="evenodd" clip-rule="evenodd" d="M96.42 62.703c0-.489-.187-.979-.56-1.353l-7.519-7.519a1.908 1.908 0 0 0-1.366-.573h-22.14a1.915 1.915 0 0 0-1.915 1.916V69.12c0 1.058.858 1.914 1.915 1.914h29.671a1.915 1.915 0 0 0 1.916-1.914v-6.417h-.002zm-3.829 4.502H66.75V57.089h19.434l6.407 6.408v3.708zM51.354 13.09l-7.519-7.519A1.91 1.91 0 0 0 42.47 5H5.494a1.915 1.915 0 0 0-1.916 1.914V20.86c0 1.058.857 1.915 1.916 1.915H50a1.915 1.915 0 0 0 1.915-1.915v-6.417c0-.49-.187-.979-.561-1.353zm-3.269 5.855H7.409V8.829h34.268l6.408 6.407v3.709zM35.164 29.407h22.142c.534 0 1.019.22 1.365.573l7.518 7.518c.375.374.562.864.562 1.354v6.416a1.915 1.915 0 0 1-1.915 1.915H35.164a1.915 1.915 0 0 1-1.915-1.915V31.322c0-1.057.857-1.915 1.915-1.915zM35.164 77.223h51.812c.535 0 1.019.22 1.366.573l7.519 7.519c.373.373.56.863.56 1.354h.002v6.416a1.916 1.916 0 0 1-1.916 1.916H35.164a1.915 1.915 0 0 1-1.915-1.916V79.139c0-1.059.857-1.916 1.915-1.916z" />
    </svg>