<?xml version='1.0' encoding='utf-8'?>
<svg xmlns:ns0="http://www.w3.org/2000/svg" xmlns="http://www.w3.org/2000/svg" xmlns:xlink="http://www.w3.org/1999/xlink" viewBox="0 0 100 100"><ns0:title>Combined Shape</ns0:title>
        <ns0:path d="M50 27.519c23.029 2.03 34.007 11.298 34.147 33.667.082 12.963-5.491 21.593-14.643 25.91-2.826 1.333-5.797 2.155-8.785 2.58-1.972.28-3.69.355-5.034.313-.221-.008-.221-.008-.327-.014 0 0 .628-11.365.683-11.363 2.344.073 5.59-.388 8.607-1.811 5.19-2.448 8.17-7.064 8.117-15.544C72.67 46.383 66.659 40.444 50 38.895V55.53L15.852 32.765 50 10z" fill-rule="evenodd" />
    </svg>