<?xml version='1.0' encoding='utf-8'?>
<svg xmlns:ns0="http://www.w3.org/2000/svg" xmlns="http://www.w3.org/2000/svg" xmlns:xlink="http://www.w3.org/1999/xlink" viewBox="0 0 100 100"><ns0:path d="M50 26c-6.75 0-11.135 2.895-13.124 6.375C34.886 35.855 35 39.5 35 41h6c0-1.5.114-3.855 1.125-5.625C43.136 33.605 44.75 32 50 32c3.999 0 6.222.996 7.407 2.064C58.593 35.132 59 36.419 59 38.003c0 5.001-1.968 6.375-4.968 9S47 53.504 47 60.503v1.5h6v-1.5c0-5.001 1.968-6.375 4.968-9S65 45.002 65 38.003c0-2.916-1.092-6.129-3.657-8.439C58.779 27.257 54.999 26 50 26zm-3 42v6h6v-6h-6z" />
    </svg>