<?xml version='1.0' encoding='utf-8'?>
<svg xmlns:ns0="http://www.w3.org/2000/svg" xmlns="http://www.w3.org/2000/svg" xmlns:xlink="http://www.w3.org/1999/xlink" viewBox="-13.05 8.347 100 100"><ns0:path d="M86.95 58.411S66.82 93.155 36.947 93.155-13.05 58.411-13.05 58.411 7.074 23.538 36.947 23.538c29.872 0 50.003 34.873 50.003 34.873zm-25.515 0c0-13.46-11.027-24.486-24.488-24.486-13.46 0-24.488 11.025-24.488 24.487 0 13.463 11.027 24.488 24.488 24.488S61.435 71.874 61.435 58.41zM36.947 47.387c-6.024 0-10.898 5.127-10.898 11.024A10.89 10.89 0 0 0 36.947 69.31c5.9 0 11.026-4.871 11.026-10.897 0-5.897-5.126-11.024-11.026-11.024z" />
    </svg>