<?xml version='1.0' encoding='utf-8'?>
<svg xmlns:ns0="http://www.w3.org/2000/svg" xmlns="http://www.w3.org/2000/svg" xmlns:xlink="http://www.w3.org/1999/xlink" viewBox="0 0 99.999999 99.999998"><ns0:g transform="matrix(.28 0 0 .28 -8.912 9.148)">
            <ns0:path d="M48.4 129.2c-3.3 0-6 2.7-6 6v21.5c0 3.3 2.7 6 6 6s6-2.7 6-6v-21.5c0-3.4-2.7-6-6-6zM70 113.8c-3.3 0-6 2.7-6 6V172c0 3.3 2.7 6 6 6s6-2.7 6-6v-52.2c0-3.3-2.7-6-6-6zM91.6 95.8c-3.3 0-6 2.7-6 6V190c0 3.3 2.7 6 6 6s6-2.7 6-6v-88.2c0-3.3-2.7-6-6-6zM113.2 71.8c-3.3 0-6 2.7-6 6V214c0 3.3 2.7 6 6 6s6-2.7 6-6V77.8c0-3.3-2.7-6-6-6zM134.8 51.8c-3.3 0-6 2.7-6 6V234c0 3.3 2.7 6 6 6s6-2.7 6-6V57.8c0-3.3-2.7-6-6-6zM156.4 72.1c-3.2 0-5.8 2.6-5.8 5.8V214c0 3.2 2.6 5.8 5.8 5.8 3.2 0 5.8-2.6 5.8-5.8V77.8c0-3.2-2.6-5.7-5.8-5.7zM178 86.5c-3.5 0-6.3 2.8-6.3 6.3V199c0 3.5 2.8 6.3 6.3 6.3s6.3-2.8 6.3-6.3V92.8c0-3.5-2.8-6.3-6.3-6.3zM199.6 52.1c-3.1 0-5.7 2.5-5.7 5.7V234c0 3.1 2.5 5.7 5.7 5.7s5.7-2.5 5.7-5.7V57.8c0-3.1-2.6-5.7-5.7-5.7zM221.2 26.8c-3.3 0-6 2.7-6 6V259c0 3.3 2.7 6 6 6s6-2.7 6-6V32.8c0-3.3-2.7-6-6-6zM242.8 41.8c-3.3 0-6 2.7-6 6V244c0 3.3 2.7 6 6 6s6-2.7 6-6V47.8c0-3.3-2.7-6-6-6zM264.4 65.8c-3.3 0-6 2.7-6 6V220c0 3.3 2.7 6 6 6s6-2.7 6-6V71.8c0-3.3-2.7-6-6-6zM286 86.8c-3.3 0-6 2.7-6 6V199c0 3.3 2.7 6 6 6s6-2.7 6-6V92.8c0-3.3-2.7-6-6-6zM307.6 113.8c-3.3 0-6 2.7-6 6V172c0 3.3 2.7 6 6 6s6-2.7 6-6v-52.2c0-3.3-2.7-6-6-6zM329.2 91.8c-3.3 0-6 2.7-6 6V194c0 3.3 2.7 6 6 6s6-2.7 6-6V97.8c0-3.3-2.7-6-6-6zM350.8 113.8c-3.3 0-6 2.7-6 6V172c0 3.3 2.7 6 6 6s6-2.7 6-6v-52.2c0-3.3-2.7-6-6-6zM372.4 129.2c-3.3 0-6 2.7-6 6v21.5c0 3.3 2.7 6 6 6s6-2.7 6-6v-21.5c0-3.4-2.7-6-6-6z" />
        </ns0:g>
    </svg>