<?xml version='1.0' encoding='utf-8'?>
<svg xmlns:ns0="http://www.w3.org/2000/svg" xmlns="http://www.w3.org/2000/svg" xmlns:xlink="http://www.w3.org/1999/xlink" viewBox="0 0 100 100"><ns0:path d="M90 50c0-18.856-17.91-40-40-40-22.091 0-40 17.909-40 40s21.144 40 40 40 40-21.144 40-40zM50 78.571c-15.754 0-28.571-12.817-28.571-28.571 0-15.754 12.817-28.571 28.571-28.571 15.754 0 28.571 12.817 28.571 28.571 0 15.754-12.817 28.571-28.571 28.571z" />
        <ns0:path d="M67.143 44.286H55.714V32.857H44.286v11.429H32.857v11.428h11.429v11.429h11.428V55.714h11.429z" />
    </svg>